<?xml version="1.0" encoding="UTF-8"?> <svg xmlns="http://www.w3.org/2000/svg" width="175.762" height="61.784" viewBox="0 0 175.762 61.784"><defs><style>.a{fill:#0a0700;}.b{fill:#fff;}</style></defs><g transform="translate(-1919.003 -1649.873)"><g transform="translate(1972.704 1658.781)"><g transform="translate(0 4.955)"><path class="a" d="M2315.359,1762.19v2.565a5.158,5.158,0,0,1-1.145,3.6,5.175,5.175,0,0,1-6.757,0,5.157,5.157,0,0,1-1.145-3.6v-10.038a5.16,5.16,0,0,1,1.145-3.6,5.175,5.175,0,0,1,6.757,0,5.16,5.16,0,0,1,1.145,3.6v1.875h-2.868v-2.069a2.053,2.053,0,0,0-.427-1.475,1.746,1.746,0,0,0-2.289,0,2.049,2.049,0,0,0-.427,1.475v10.424a2,2,0,0,0,.427,1.462,1.791,1.791,0,0,0,2.289,0,2,2,0,0,0,.427-1.462v-2.757Z" transform="translate(-2306.313 -1749.862)"></path></g><g transform="translate(10.094 5.176)"><path class="a" d="M2389.73,1770.76h-3.061l-.524-3.5h-3.723l-.524,3.5h-2.785l3.089-19.3h4.44Zm-6.922-6.123h2.923l-1.462-9.762Z" transform="translate(-2379.113 -1751.455)"></path></g><g transform="translate(21.649 4.955)"><path class="a" d="M2462.539,1754.716a5.243,5.243,0,0,1,1.117-3.6,5.1,5.1,0,0,1,6.7,0,5.243,5.243,0,0,1,1.117,3.6v.606h-2.868v-.8a2.148,2.148,0,0,0-.4-1.475,1.673,1.673,0,0,0-2.234,0,2.147,2.147,0,0,0-.4,1.475,3.419,3.419,0,0,0,.441,1.751,7.263,7.263,0,0,0,1.1,1.434q.662.676,1.42,1.352a13.519,13.519,0,0,1,1.42,1.475,7.523,7.523,0,0,1,1.1,1.82,6.008,6.008,0,0,1,.442,2.4,5.158,5.158,0,0,1-1.145,3.6,5.175,5.175,0,0,1-6.757,0,5.157,5.157,0,0,1-1.144-3.6v-1.186h2.868v1.378a2,2,0,0,0,.427,1.462,1.791,1.791,0,0,0,2.289,0,2,2,0,0,0,.427-1.462,3.418,3.418,0,0,0-.441-1.751,7.293,7.293,0,0,0-1.1-1.434q-.662-.675-1.42-1.352a13.412,13.412,0,0,1-1.42-1.475,7.479,7.479,0,0,1-1.1-1.821A6,6,0,0,1,2462.539,1754.716Z" transform="translate(-2462.456 -1749.862)"></path></g><g transform="translate(31.963 4.955)"><path class="a" d="M2536.929,1754.716a5.243,5.243,0,0,1,1.117-3.6,5.1,5.1,0,0,1,6.7,0,5.243,5.243,0,0,1,1.117,3.6v.606H2543v-.8a2.148,2.148,0,0,0-.4-1.475,1.673,1.673,0,0,0-2.234,0,2.148,2.148,0,0,0-.4,1.475,3.421,3.421,0,0,0,.441,1.751,7.264,7.264,0,0,0,1.1,1.434q.661.676,1.42,1.352a13.542,13.542,0,0,1,1.42,1.475,7.523,7.523,0,0,1,1.1,1.82,6.012,6.012,0,0,1,.441,2.4,5.159,5.159,0,0,1-1.145,3.6,5.176,5.176,0,0,1-6.757,0,5.156,5.156,0,0,1-1.145-3.6v-1.186h2.868v1.378a2,2,0,0,0,.427,1.462,1.791,1.791,0,0,0,2.289,0,2,2,0,0,0,.428-1.462,3.42,3.42,0,0,0-.441-1.751,7.284,7.284,0,0,0-1.1-1.434q-.662-.675-1.42-1.352a13.433,13.433,0,0,1-1.42-1.475,7.471,7.471,0,0,1-1.1-1.821A6,6,0,0,1,2536.929,1754.716Z" transform="translate(-2536.846 -1749.862)"></path></g><g transform="translate(42.746 5.176)"><path class="a" d="M2617.65,1759.59h4.164v2.758h-4.164V1768h5.24v2.758h-8.273v-19.3h8.273v2.758h-5.24Zm7.17,0h4.164v2.758h-4.164Z" transform="translate(-2614.617 -1751.455)"></path></g><g transform="translate(60.093 4.955)"><path class="a" d="M2748.773,1762.19v2.565a5.155,5.155,0,0,1-1.145,3.6,5.175,5.175,0,0,1-6.756,0,5.156,5.156,0,0,1-1.145-3.6v-10.038a5.159,5.159,0,0,1,1.145-3.6,5.175,5.175,0,0,1,6.756,0,5.158,5.158,0,0,1,1.145,3.6v1.875h-2.868v-2.069a2.051,2.051,0,0,0-.427-1.475,1.745,1.745,0,0,0-2.289,0,2.049,2.049,0,0,0-.427,1.475v10.424a2,2,0,0,0,.427,1.462,1.79,1.79,0,0,0,2.289,0,2,2,0,0,0,.427-1.462v-2.757Z" transform="translate(-2739.728 -1749.862)"></path></g><g transform="translate(70.987 5.176)"><path class="a" d="M2824.551,1770.76l-.188-5.405a2.974,2.974,0,0,0-.469-1.9,1.889,1.889,0,0,0-1.517-.552h-1.048l.188,7.859h-3.033l-.188-19.3h4.578a4.6,4.6,0,0,1,3.433,1.1,4.647,4.647,0,0,1,1.062,3.337v1.517q0,2.978-1.986,3.916a2.718,2.718,0,0,1,1.586,1.531,6.908,6.908,0,0,1,.428,2.578l.188,5.323Zm-3.222-16.547v5.929h1.186a1.909,1.909,0,0,0,1.338-.442,2.117,2.117,0,0,0,.483-1.6v-1.9a2.45,2.45,0,0,0-.373-1.517,1.407,1.407,0,0,0-1.172-.469Z" transform="translate(-2818.296 -1751.455)"></path></g><g transform="translate(81.825 4.955)"><path class="a" d="M2896.464,1754.716a5.041,5.041,0,0,1,1.186-3.6,5.287,5.287,0,0,1,6.839,0,5.044,5.044,0,0,1,1.186,3.6v10.038a5.042,5.042,0,0,1-1.186,3.6,5.287,5.287,0,0,1-6.839,0,5.038,5.038,0,0,1-1.186-3.6Zm3.034,10.231a2.047,2.047,0,0,0,.427,1.476,1.746,1.746,0,0,0,2.289,0,2.051,2.051,0,0,0,.427-1.476v-10.424a2.051,2.051,0,0,0-.427-1.475,1.745,1.745,0,0,0-2.289,0,2.048,2.048,0,0,0-.427,1.475Z" transform="translate(-2896.464 -1749.862)"></path></g><g transform="translate(92.856 0)"><path class="a" d="M2979.059,1719.3v14.892a2,2,0,0,0,.427,1.461,1.789,1.789,0,0,0,2.289,0,2,2,0,0,0,.428-1.461V1719.3h2.868V1734a5.159,5.159,0,0,1-1.144,3.6,5.175,5.175,0,0,1-6.757,0,5.156,5.156,0,0,1-1.145-3.6v-14.7Zm-2.289-1.575,2.455-3.6h2.73l2.454,3.6h-2.592l-1.241-1.517-1.213,1.517Z" transform="translate(-2976.025 -1714.124)"></path></g><g transform="translate(103.087 5.176)"><path class="a" d="M3049.819,1751.455h9.377v2.758h-3.172v16.547h-3.034v-16.547h-3.171Z" transform="translate(-3049.819 -1751.455)"></path></g><g transform="translate(113.788 5.176)"><path class="a" d="M3130.031,1759.59h4.165v2.758h-4.165V1768h5.24v2.758H3127v-19.3h8.273v2.758h-5.24Z" transform="translate(-3126.998 -1751.455)"></path></g></g><rect class="a" width="122.062" height="15.823" transform="translate(1972.704 1689.295)"></rect><path class="a" d="M1967.321,1677.8a1.373,1.373,0,0,0-1.344-1.655h-1.859l.405-4.355a2.7,2.7,0,0,0-2.687-2.949h-5.07l.623-11.155a2.7,2.7,0,0,0-2.694-2.85h-5.814l.043-2.213a2.7,2.7,0,0,0-2.7-2.751h-6.1a2.7,2.7,0,0,0-2.7,2.75l.092,4.781h-5.6a2.7,2.7,0,0,0-2.695,2.846l.257,4.713h-5.327a2.7,2.7,0,0,0-2.687,2.948l.763,8.235h-1.859a1.373,1.373,0,0,0-1.344,1.655l6.549,31.195a3.365,3.365,0,0,0,3.28,2.663h28.632a3.365,3.365,0,0,0,3.28-2.663Z" transform="translate(0)"></path><path class="b" d="M2188.678,1806.48h5.171l-.424,4.558h-5Z" transform="translate(-232.066 -134.894)"></path><path class="b" d="M2130.94,1705.155l5.817-.04-.7,12.6-.369,6.622a3.131,3.131,0,0,0-1.293,2.087,9.184,9.184,0,0,1-3.963,6.276Z" transform="translate(-182.11 -47.583)"></path><path class="b" d="M2077.412,1669.333l-.07,3.612c0,.006,0,.011,0,.017l-.563,30.2a8.987,8.987,0,0,1-4.741,0l-.515-27.634s0-.009,0-.013l-.165-6.132Z" transform="translate(-131.233 -16.762)"></path><path class="b" d="M2018.154,1723.994l.465,24.972a9.186,9.186,0,0,1-3.964-6.276,3.124,3.124,0,0,0-1.174-2l-.591-10.586h0l-.333-6.108Z" transform="translate(-80.583 -63.844)"></path><path class="b" d="M1961.995,1778.506l.471,8.436h-5.116l-.782-8.436Z" transform="translate(-32.357 -110.798)"></path><path class="b" d="M1977.12,1888.7a.607.607,0,0,1-.592.481H1947.9a.607.607,0,0,1-.592-.481l-6.2-29.54h8.844a.479.479,0,0,1,.142.024l.026.008a.416.416,0,0,1,.276.317,11.947,11.947,0,0,0,23.644,0,.44.44,0,0,1,.444-.349h8.843Z" transform="translate(-19.036 -180.268)"></path><g transform="translate(1985.995 1692.039)"><g transform="translate(0 0.014)"><path class="b" d="M2406.888,1955.861a2.169,2.169,0,0,0-1.861.9,4.2,4.2,0,0,0-.659,2.517q0,3.358,2.52,3.358a7.964,7.964,0,0,0,2.562-.529v1.786a7.115,7.115,0,0,1-2.76.515,4.21,4.21,0,0,1-3.351-1.329,5.628,5.628,0,0,1-1.16-3.814,6.232,6.232,0,0,1,.57-2.744,4.121,4.121,0,0,1,1.638-1.806,4.843,4.843,0,0,1,2.5-.628,6.757,6.757,0,0,1,2.939.707l-.687,1.73a11.431,11.431,0,0,0-1.133-.467A3.391,3.391,0,0,0,2406.888,1955.861Z" transform="translate(-2402.178 -1954.089)"></path></g><g transform="translate(11.915 0)"><path class="b" d="M2497.67,1959.154a5.448,5.448,0,0,1-1.236,3.832,5.357,5.357,0,0,1-7.087,0,5.47,5.47,0,0,1-1.236-3.845,5.4,5.4,0,0,1,1.239-3.828,4.635,4.635,0,0,1,3.554-1.322,4.57,4.57,0,0,1,3.54,1.332A5.462,5.462,0,0,1,2497.67,1959.154Zm-7.327,0a4.192,4.192,0,0,0,.639,2.534,2.233,2.233,0,0,0,1.909.852q2.548,0,2.548-3.385t-2.534-3.392a2.249,2.249,0,0,0-1.916.854A4.176,4.176,0,0,0,2490.343,1959.154Z" transform="translate(-2488.112 -1953.99)"></path></g><g transform="translate(26.439 0.158)"><path class="b" d="M2601.1,1955.129v6.5a3.747,3.747,0,0,1-.5,1.95,3.24,3.24,0,0,1-1.439,1.284,5.137,5.137,0,0,1-2.225.447,4.259,4.259,0,0,1-3.008-.992,3.519,3.519,0,0,1-1.071-2.716v-6.469h2.122v6.146a2.572,2.572,0,0,0,.467,1.7,1.94,1.94,0,0,0,1.545.543,1.9,1.9,0,0,0,1.514-.546,2.588,2.588,0,0,0,.47-1.713v-6.132Z" transform="translate(-2592.863 -1955.129)"></path></g><g transform="translate(40.09 0.158)"><path class="b" d="M2693.454,1961.316v3.852h-2.129v-10.039h2.925a5.006,5.006,0,0,1,3.028.745,2.97,2.97,0,0,1,.495,3.839,3.225,3.225,0,0,1-1.38,1.082q2.266,3.385,2.953,4.374h-2.362l-2.4-3.852Zm0-1.731h.687a2.63,2.63,0,0,0,1.49-.336,1.2,1.2,0,0,0,.481-1.058,1.1,1.1,0,0,0-.491-1.016,2.983,2.983,0,0,0-1.521-.3h-.646Z" transform="translate(-2691.325 -1955.129)"></path></g><g transform="translate(51.345 0.158)"><path class="b" d="M2777.355,1965.168h-2.129V1956.9H2772.5v-1.772h7.581v1.772h-2.726Z" transform="translate(-2772.5 -1955.129)"></path></g><g transform="translate(63.425 0.158)"><path class="b" d="M2865.4,1965.168h-5.782v-10.039h5.782v1.744h-3.654v2.2h3.4v1.744h-3.4v2.589h3.654Z" transform="translate(-2859.622 -1955.129)"></path></g><g transform="translate(72.991 0.117)"><path class="b" d="M2936.025,1964.913l-.728-2.39h-3.66l-.728,2.39h-2.294l3.543-10.081h2.6l3.557,10.081Zm-1.236-4.175q-1.01-3.248-1.137-3.674c-.085-.283-.145-.508-.182-.672q-.227.878-1.3,4.347Z" transform="translate(-2928.616 -1954.832)"></path></g><g transform="translate(86.842 0.158)"><path class="b" d="M3036.757,1955.129v6.5a3.74,3.74,0,0,1-.5,1.95,3.235,3.235,0,0,1-1.438,1.284,5.141,5.141,0,0,1-2.225.447,4.257,4.257,0,0,1-3.007-.992,3.519,3.519,0,0,1-1.072-2.716v-6.469h2.122v6.146a2.575,2.575,0,0,0,.467,1.7,1.94,1.94,0,0,0,1.545.543,1.9,1.9,0,0,0,1.514-.546,2.588,2.588,0,0,0,.47-1.713v-6.132Z" transform="translate(-3028.517 -1955.129)"></path></g></g><g transform="translate(1976.622 1694.391)"><path class="b" d="M2337.4,1975.48l1.747,1.105-.464-2.083,1.543-1.4-2.032-.181-.794-1.965-.794,1.965-2.032.181,1.543,1.4-.464,2.083Z" transform="translate(-2334.572 -1970.956)"></path></g><g transform="translate(2085.064 1694.391)"><path class="b" d="M3119.528,1975.48l1.747,1.105-.463-2.083,1.543-1.4-2.032-.181-.794-1.965-.794,1.965-2.032.181,1.543,1.4-.464,2.083Z" transform="translate(-3116.701 -1970.956)"></path></g></g></svg> 