<svg width="308" height="109" viewBox="0 0 308 109" fill="none" xmlns="http://www.w3.org/2000/svg">
<path d="M109.954 46.2065V50.7296C109.954 53.4875 109.286 55.6042 107.949 57.0793C106.611 58.5543 104.638 59.2919 102.028 59.2925C99.4187 59.2925 97.4453 58.555 96.1081 57.0793C94.7708 55.6036 94.1022 53.4868 94.1022 50.7296V33.0212C94.1022 30.2645 94.7708 28.148 96.1081 26.671C97.4453 25.194 99.4187 24.4561 102.028 24.4573C104.638 24.4573 106.611 25.1953 107.949 26.671C109.286 28.1467 109.954 30.2633 109.954 33.0212V36.3299H104.928V32.6802C105.023 31.7478 104.754 30.8146 104.179 30.0773C103.623 29.5911 102.911 29.3236 102.174 29.3236C101.437 29.3236 100.725 29.5911 100.168 30.0773C99.5932 30.8144 99.3247 31.7477 99.4196 32.6802V51.0668C99.321 51.9921 99.5902 52.9194 100.168 53.6454C100.732 54.1169 101.441 54.3751 102.174 54.3751C102.906 54.3751 103.616 54.1169 104.179 53.6454C104.757 52.9191 105.026 51.9921 104.928 51.0668V46.2019L109.954 46.2065Z" fill="#F7A600"/>
<path d="M130.396 58.9071H125.032L124.114 52.7276H117.59L116.671 58.9071H111.791L117.204 24.8505H124.984L130.396 58.9071ZM118.266 48.1061H123.389L120.827 30.8832L118.266 48.1061Z" fill="#F7A600"/>
<path d="M132.185 33.0212C132.185 30.2645 132.837 28.148 134.142 26.671C135.447 25.194 137.404 24.4561 140.014 24.4573C142.623 24.4573 144.58 25.1953 145.885 26.671C147.19 28.1467 147.842 30.2633 147.842 33.0212V34.0919H142.817V32.6784C142.908 31.7536 142.658 30.8272 142.116 30.0755C141.578 29.5899 140.881 29.3213 140.159 29.3213C139.436 29.3213 138.739 29.5899 138.201 30.0755C137.659 30.8272 137.41 31.7537 137.501 32.6784C137.479 33.7595 137.746 34.8266 138.274 35.7681C138.812 36.6893 139.461 37.5394 140.207 38.2984C140.98 39.0937 141.81 39.8882 142.696 40.6823C143.59 41.4852 144.422 42.3555 145.185 43.2852C145.977 44.2581 146.628 45.3396 147.118 46.4969C147.66 47.8399 147.923 49.2802 147.891 50.7296C147.891 53.4875 147.222 55.6042 145.885 57.0793C144.548 58.5543 142.575 59.2919 139.965 59.2925C137.355 59.2925 135.382 58.555 134.045 57.0793C132.707 55.6036 132.039 53.4868 132.04 50.7296V48.6387H137.065V51.071C136.966 51.9962 137.236 52.923 137.814 53.649C138.377 54.1206 139.087 54.3788 139.819 54.3788C140.552 54.3788 141.261 54.1206 141.825 53.649C142.403 52.9229 142.672 51.9962 142.574 51.071C142.596 49.9898 142.329 48.9223 141.8 47.9808C141.263 47.0601 140.613 46.2102 139.868 45.4505C139.094 44.6565 138.264 43.862 137.379 43.0666C136.485 42.2641 135.653 41.3938 134.89 40.4637C134.097 39.4915 133.446 38.4103 132.957 37.2525C132.415 35.9102 132.152 34.4699 132.185 33.0212Z" fill="#F7A600"/>
<path d="M150.259 33.0212C150.259 30.2645 150.912 28.148 152.216 26.671C153.521 25.194 155.478 24.4561 158.088 24.4573C160.698 24.4573 162.655 25.1953 163.96 26.671C165.264 28.1467 165.917 30.2633 165.917 33.0212V34.0919H160.89V32.6784C160.981 31.7536 160.732 30.8273 160.189 30.0755C159.652 29.5899 158.955 29.3213 158.232 29.3213C157.51 29.3213 156.813 29.5899 156.275 30.0755C155.732 30.8272 155.483 31.7537 155.575 32.6784C155.553 33.7595 155.82 34.8266 156.348 35.7681C156.885 36.6893 157.534 37.5394 158.281 38.2984C159.054 39.0937 159.884 39.8882 160.77 40.6823C161.664 41.4853 162.496 42.3555 163.259 43.2852C164.051 44.2582 164.701 45.3397 165.191 46.4969C165.734 47.8399 165.997 49.2802 165.965 50.7296C165.965 53.4875 165.296 55.6042 163.959 57.0793C162.621 58.5543 160.648 59.2919 158.038 59.2925C155.429 59.2925 153.455 58.555 152.118 57.0793C150.781 55.6036 150.113 53.4868 150.113 50.7296V48.6387H155.139V51.071C155.04 51.9962 155.309 52.923 155.887 53.649C156.451 54.1206 157.16 54.3788 157.893 54.3788C158.626 54.3788 159.335 54.1206 159.898 53.649C160.476 52.923 160.746 51.9962 160.647 51.071C160.669 49.9898 160.402 48.9223 159.874 47.9808C159.336 47.06 158.687 46.21 157.941 45.4505C157.168 44.6565 156.338 43.862 155.452 43.0666C154.558 42.2641 153.726 41.3938 152.963 40.4637C152.17 39.4914 151.519 38.4102 151.03 37.2525C150.489 35.9101 150.226 34.4698 150.259 33.0212Z" fill="#F7A600"/>
<path d="M174.326 39.2006H181.627V44.0655H174.326V54.0392H183.508V58.9045H169.01V24.8475H183.508V29.7119H174.326V39.2006ZM186.891 39.2006H194.192V44.0655H186.891V39.2006Z" fill="#F7A600"/>
<path d="M215.259 46.2065V50.7296C215.259 53.4875 214.59 55.6042 213.253 57.0793C211.916 58.5543 209.943 59.2919 207.334 59.2925C204.724 59.2925 202.751 58.555 201.413 57.0793C200.076 55.6036 199.408 53.4868 199.408 50.7296V33.0212C199.408 30.2645 200.076 28.148 201.413 26.671C202.751 25.194 204.724 24.4561 207.334 24.4573C209.943 24.4573 211.916 25.1953 213.253 26.671C214.59 28.1467 215.258 30.2633 215.259 33.0212V36.3299H210.232V32.6802C210.327 31.7478 210.059 30.8145 209.484 30.0773C208.927 29.5909 208.215 29.3232 207.478 29.3232C206.741 29.3232 206.029 29.5909 205.473 30.0773C204.898 30.8144 204.629 31.7477 204.724 32.6802V51.0668C204.625 51.9921 204.895 52.9193 205.473 53.6454C206.036 54.1169 206.746 54.3751 207.478 54.3751C208.211 54.3751 208.92 54.1169 209.484 53.6454C210.062 52.9192 210.331 51.9921 210.232 51.0668V46.2019L215.259 46.2065Z" fill="#F7A600"/>
<path d="M229.459 58.9071L229.13 49.371C229.24 48.1908 228.951 47.0076 228.308 46.0144C227.964 45.6647 227.547 45.3962 227.087 45.228C226.627 45.0599 226.136 44.996 225.65 45.0417H223.812L224.142 58.9071H218.826L218.496 24.8505H226.519C229.29 24.8505 231.295 25.499 232.536 26.7963C233.776 28.0936 234.397 30.0556 234.397 32.6823V35.3593C234.397 38.8616 233.237 41.1647 230.917 42.2685C231.542 42.4981 232.112 42.8567 232.591 43.3217C233.07 43.7867 233.446 44.3475 233.696 44.968C234.231 46.4228 234.486 47.9671 234.445 49.5178L234.775 58.9071H229.459ZM223.814 29.7144V40.1745H225.892C226.742 40.2242 227.579 39.9461 228.232 39.3964C228.555 39.008 228.796 38.5573 228.941 38.0722C229.086 37.587 229.131 37.0773 229.074 36.574V33.2174C229.152 32.2772 228.922 31.3376 228.419 30.5413C228.165 30.2518 227.846 30.026 227.49 29.8824C227.133 29.7387 226.748 29.6808 226.366 29.7135L223.814 29.7144Z" fill="#F7A600"/>
<path d="M237.489 33.0212C237.489 30.2646 238.182 28.148 239.567 26.671C241.241 25.2432 243.364 24.4592 245.558 24.4592C247.751 24.4592 249.874 25.2432 251.548 26.671C252.933 28.1474 253.626 30.264 253.626 33.0212V50.7305C253.626 53.4884 252.933 55.6052 251.548 57.0802C249.874 58.5081 247.751 59.2916 245.558 59.2916C243.364 59.2916 241.241 58.5081 239.567 57.0802C238.181 55.6052 237.489 53.4884 237.489 50.7305V33.0212ZM242.806 51.0719C242.71 52.0045 242.979 52.9375 243.554 53.6744C244.111 54.1608 244.823 54.4285 245.56 54.4285C246.297 54.4285 247.009 54.1608 247.565 53.6744C248.14 52.9373 248.409 52.0044 248.314 51.0719V32.6803C248.409 31.7478 248.14 30.8146 247.565 30.0774C247.009 29.591 246.297 29.3232 245.56 29.3232C244.823 29.3232 244.111 29.591 243.554 30.0774C242.979 30.8145 242.711 31.7478 242.806 32.6803V51.0719Z" fill="#F7A600"/>
<path d="M262.136 24.8485V51.1207C262.038 52.046 262.307 52.9727 262.885 53.6988C263.449 54.1705 264.158 54.429 264.891 54.429C265.624 54.429 266.333 54.1705 266.897 53.6988C267.475 52.9726 267.744 52.046 267.646 51.1207V24.8485H272.671V50.7816C272.671 53.5383 272.003 55.6543 270.666 57.13C269.33 58.6057 267.356 59.3436 264.746 59.3436C262.136 59.3436 260.163 58.6057 258.826 57.13C257.488 55.6543 256.82 53.5383 256.82 50.7816V24.8485H262.136ZM258.124 22.0694L262.43 15.7164H267.214L271.515 22.0694H266.974L264.798 19.3933L262.672 22.0694H258.124Z" fill="#F7A600"/>
<path d="M274.75 24.8475H291.182V29.7119H285.628V58.9073H280.312V29.7147H274.755L274.75 24.8475Z" fill="#F7A600"/>
<path d="M298.817 39.2006H306.118V44.0655H298.817V54.0392H307.999V58.9045H293.501V24.8475H307.999V29.7119H298.817V39.2006Z" fill="#F7A600"/>
<path d="M308 69.5481H94.103V97.4629H308V69.5481Z" fill="#F7A600"/>
<path d="M84.6699 49.2673C84.7438 48.9146 84.7385 48.5498 84.6544 48.1994C84.5703 47.8489 84.4095 47.5218 84.1839 47.2419C83.9582 46.9619 83.6733 46.7361 83.35 46.5811C83.0266 46.4262 82.673 46.3458 82.3149 46.346H79.0566L79.7661 38.6642C79.8271 38.0046 79.7506 37.3396 79.5417 36.7114C79.3328 36.0833 78.9959 35.5055 78.5527 35.0159C78.1095 34.5262 77.5697 34.1351 76.9678 33.8674C76.3659 33.5997 75.7151 33.4616 75.057 33.4616H66.1743L67.2666 13.7829C67.3024 13.1363 67.2068 12.489 66.9856 11.8808C66.7645 11.2726 66.4225 10.7163 65.9805 10.2457C65.5385 9.77518 65.0058 9.40021 64.415 9.14397C63.8242 8.88772 63.1877 8.75554 62.5444 8.75539H52.3587L52.4336 4.85123C52.4458 4.21832 52.3325 3.58936 52.1003 3.00107C51.8681 2.41277 51.5218 1.87704 51.0814 1.42514C50.6411 0.973241 50.1157 0.614153 49.5359 0.369152C48.9561 0.124151 48.3336 -0.00182801 47.7049 -0.0017089H37.0175C36.3888 -0.00182558 35.7663 0.12421 35.1866 0.369152C34.6069 0.614094 34.0815 0.972881 33.6412 1.42468C33.2009 1.87648 32.8545 2.41219 32.6223 3.00038C32.39 3.58856 32.2766 4.21748 32.2887 4.85031L32.4488 13.2842H22.6431C22.0003 13.2841 21.3642 13.4159 20.7738 13.6716C20.1833 13.9273 19.6509 14.3019 19.2089 14.7718C18.767 15.2417 18.4248 15.7972 18.2034 16.4047C17.9819 17.0122 17.8858 17.6589 17.9209 18.3051L18.3711 26.6181H9.03625C8.37836 26.618 7.72771 26.7565 7.12586 27.024C6.52402 27.2915 5.98423 27.6825 5.54103 28.172C5.09782 28.6615 4.76092 29.2386 4.55191 29.8666C4.3429 30.4946 4.26635 31.1594 4.32716 31.8189L5.66474 46.3469H2.40649C2.04839 46.3467 1.69475 46.4271 1.37141 46.582C1.04807 46.737 0.763184 46.9628 0.537518 47.2428C0.311851 47.5227 0.151115 47.8499 0.0670258 48.2003C-0.017063 48.5507 -0.0223915 48.9155 0.0514579 49.2682L11.527 104.301C11.8079 105.627 12.5313 106.816 13.5769 107.671C14.6225 108.526 15.9272 108.995 17.2741 108.999H67.4445C68.7914 108.995 70.0961 108.526 71.1417 107.671C72.1873 106.816 72.9107 105.627 73.1916 104.301L84.6699 49.2673Z" fill="#F7A600"/>
<path d="M65.9047 38.308H74.9672L74.224 46.3486H65.4592L65.9047 38.308Z" fill="#090400"/>
<path d="M52.2679 13.585L62.4611 13.5132L61.2274 35.7524L60.5797 47.4373C59.9752 47.8654 59.4629 48.4124 59.0736 49.045C58.6843 49.6775 58.4261 50.3827 58.3145 51.1183C57.9856 53.3487 57.198 55.4855 56.0021 57.3921C54.8062 59.2986 53.2283 60.933 51.3693 62.1907L52.2679 13.585Z" fill="#090400"/>
<path d="M47.6206 4.76001L47.498 11.1309C47.498 11.1413 47.498 11.1518 47.498 11.1622L46.5123 64.4368C43.7928 65.1847 40.9238 65.1847 38.2043 64.4368L37.3029 15.6852C37.3029 15.6777 37.3029 15.6693 37.3029 15.6618L37.0137 4.84467L47.6206 4.76001Z" fill="#090400"/>
<path d="M32.5386 18.1306L33.353 62.1866C31.4939 60.9291 29.9159 59.2953 28.7198 57.3889C27.5238 55.4825 26.736 53.3459 26.4068 51.1155C26.1962 49.7158 25.4589 48.4511 24.3476 47.5836L23.3114 28.9071L22.7283 18.1315L32.5386 18.1306Z" fill="#090400"/>
<path d="M18.636 31.4655L19.4616 46.3487H10.4974L9.12708 31.4655H18.636Z" fill="#090400"/>
<path d="M68.4843 103.307C68.4337 103.547 68.3032 103.761 68.1145 103.916C67.9258 104.07 67.6903 104.155 67.4472 104.155H17.2769C17.0338 104.155 16.7984 104.07 16.6097 103.916C16.421 103.761 16.2905 103.547 16.2398 103.307L5.37268 51.1959H20.8693C20.9537 51.1973 21.0373 51.212 21.1174 51.2387C21.1324 51.2444 21.1483 51.2469 21.1632 51.2525C21.286 51.2939 21.3956 51.3678 21.4806 51.466C21.5657 51.5643 21.6232 51.6835 21.6471 51.8116C22.372 56.8222 24.8644 61.4025 28.6685 64.7149C32.4725 68.0273 37.334 69.8503 42.3635 69.8503C47.393 69.8503 52.2544 68.0273 56.0585 64.7149C59.8625 61.4025 62.355 56.8222 63.0798 51.8116C63.1175 51.6334 63.216 51.4741 63.3584 51.3616C63.5007 51.2491 63.6777 51.1904 63.8586 51.1959H79.3505L68.4843 103.307Z" fill="#090400"/>
<path d="M125.65 77.5394C125.017 77.5104 124.388 77.6409 123.818 77.919C123.249 78.1971 122.757 78.614 122.388 79.1319C121.547 80.4517 121.142 82.0063 121.233 83.5721C121.233 87.5224 122.705 89.4973 125.65 89.4967C127.188 89.4375 128.706 89.1225 130.142 88.564V91.714C128.606 92.3373 126.961 92.646 125.305 92.6223C124.215 92.6936 123.123 92.5202 122.107 92.1148C121.091 91.7093 120.178 91.0821 119.433 90.278C118.077 88.7149 117.399 86.4718 117.399 83.5486C117.363 81.8796 117.705 80.2244 118.398 78.7081C119.014 77.3794 120.014 76.2687 121.268 75.5227C122.604 74.7605 124.119 74.3775 125.654 74.4138C127.442 74.4334 129.202 74.8597 130.802 75.6612L129.599 78.7146C128.952 78.4043 128.289 78.1291 127.613 77.89C126.983 77.6627 126.319 77.5441 125.65 77.5394Z" fill="#090400"/>
<path d="M155.023 83.4995C155.023 86.4314 154.302 88.6844 152.858 90.2587C151.143 91.7815 148.935 92.6219 146.648 92.6219C144.361 92.6219 142.153 91.7815 140.439 90.2587C138.995 88.6838 138.273 86.4225 138.273 83.4742C138.273 80.5259 138.996 78.2747 140.444 76.7205C141.26 75.9118 142.237 75.2861 143.31 74.8841C144.383 74.4822 145.529 74.313 146.671 74.3881C147.812 74.3116 148.956 74.4815 150.026 74.8869C151.096 75.2923 152.067 75.9238 152.874 76.7384C154.307 78.3058 155.023 80.5594 155.023 83.4995ZM142.184 83.4995C142.076 85.0718 142.47 86.6378 143.307 87.9692C143.701 88.4754 144.212 88.8768 144.795 89.1388C145.378 89.4008 146.016 89.5151 146.653 89.4719C149.629 89.4719 151.118 87.4812 151.118 83.4995C151.118 79.5178 149.637 77.5228 146.677 77.5147C146.038 77.4724 145.398 77.5878 144.813 77.8505C144.228 78.1133 143.715 78.5154 143.32 79.0225C142.474 80.3537 142.076 81.9232 142.184 83.4995Z" fill="#090400"/>
<path d="M178.165 74.6682V86.129C178.191 87.3342 177.889 88.5236 177.292 89.5684C176.699 90.5622 175.82 91.3509 174.772 91.8299C173.546 92.3812 172.215 92.65 170.873 92.6167C168.958 92.7368 167.07 92.1099 165.602 90.866C164.967 90.2491 164.471 89.5023 164.147 88.6758C163.823 87.8493 163.68 86.9624 163.726 86.0751V74.6636H167.443V85.506C167.355 86.5732 167.645 87.6373 168.262 88.5101C168.616 88.8588 169.042 89.1251 169.51 89.2905C169.977 89.4559 170.475 89.5164 170.968 89.4676C171.454 89.5126 171.943 89.4495 172.402 89.2831C172.86 89.1167 173.277 88.851 173.622 88.5046C174.242 87.6266 174.534 86.5561 174.446 85.4825V74.6645L178.165 74.6682Z" fill="#090400"/>
<path d="M191.377 85.5842V92.3793H187.647V74.6682H192.773C195.164 74.6682 196.933 75.1078 198.08 75.9874C199.005 76.8254 199.601 77.9692 199.76 79.2115C199.919 80.4537 199.63 81.7123 198.947 82.759C198.331 83.6078 197.494 84.2682 196.528 84.6672C199.175 88.6488 200.9 91.2211 201.703 92.3839H197.563L193.364 85.5888L191.377 85.5842ZM191.377 82.5308H192.581C193.491 82.5977 194.4 82.3912 195.193 81.9372C195.478 81.7233 195.705 81.4399 195.853 81.1136C196 80.7873 196.063 80.4288 196.035 80.0714C196.065 79.7226 196.001 79.3721 195.85 79.0569C195.699 78.7416 195.465 78.4736 195.175 78.2811C194.348 77.8707 193.429 77.6874 192.51 77.7496H191.378L191.377 82.5308Z" fill="#090400"/>
<path d="M215.878 92.3793H212.147V77.7938H207.373V74.6682H220.658V77.7938H215.884L215.878 92.3793Z" fill="#090400"/>
<path d="M238.666 92.3793H228.538V74.6682H238.666V77.746H232.263V81.634H238.22V84.7104H232.263V89.2781H238.666V92.3793Z" fill="#090400"/>
<path d="M258.285 92.3755L257.01 88.1593H250.595L249.32 92.3755H245.301L251.51 74.5907H256.071L262.304 92.3755H258.285ZM256.12 85.0102C254.94 81.19 254.276 79.0293 254.128 78.528C253.979 78.0267 253.873 77.6309 253.809 77.3413C253.544 78.3741 252.786 80.9305 251.534 85.0102H256.12Z" fill="#090400"/>
<path d="M284.011 74.6682V86.129C284.037 87.3342 283.736 88.5236 283.138 89.5684C282.546 90.5624 281.667 91.3511 280.618 91.8299C279.392 92.3812 278.06 92.65 276.718 92.6167C274.803 92.7371 272.916 92.1101 271.448 90.866C270.812 90.2492 270.316 89.5023 269.992 88.6758C269.668 87.8493 269.524 86.9625 269.57 86.0751V74.6636H273.288V85.506C273.2 86.5731 273.49 87.6371 274.106 88.5101C274.461 88.8587 274.887 89.1251 275.355 89.2905C275.822 89.4559 276.32 89.5164 276.814 89.4676C277.299 89.5124 277.788 89.4491 278.247 89.2827C278.705 89.1163 279.122 88.8509 279.467 88.5046C280.088 87.6266 280.38 86.5562 280.292 85.4825V74.6645L284.011 74.6682Z" fill="#090400"/>
<path d="M105.921 86.5217L108.982 88.4712L108.169 84.7962L110.874 82.3226L107.317 82.0051L105.925 78.5381L104.533 82.0051L100.976 82.3226L103.68 84.7962L102.868 88.4712L105.921 86.5217Z" fill="#090400"/>
<path d="M295.952 86.5217L299.012 88.4712L298.2 84.7962L300.904 82.3226L297.347 82.0051L295.955 78.5381L294.564 82.0051L291.007 82.3226L293.711 84.7962L292.898 88.4712L295.952 86.5217Z" fill="#090400"/>
</svg>
